<svg width="51" height="50" viewBox="0 0 51 50" fill="none" xmlns="http://www.w3.org/2000/svg">
<path d="M13.3349 6.86313C14.6357 6.81137 14.6347 4.95362 13.3349 4.90234H13.3343C12.0335 4.9543 12.0351 6.81205 13.3349 6.86313Z" fill="#ED5007"/>
<path d="M25.0967 6.86313C26.3974 6.81137 26.3965 4.95362 25.0967 4.90234H25.096C23.7952 4.9543 23.7969 6.81205 25.0967 6.86313Z" fill="#ED5007"/>
<path d="M36.8623 6.86313C38.1631 6.81137 38.1621 4.95362 36.8623 4.90234H36.8616C35.5608 4.9543 35.5625 6.81205 36.8623 6.86313Z" fill="#ED5007"/>
<path d="M7.45213 10.785C8.75292 10.7332 8.75194 8.87549 7.45213 8.82422H7.45144C6.15066 8.87618 6.15232 10.7338 7.45213 10.785Z" fill="#ED5007"/>
<path d="M19.2178 10.785C20.5185 10.7332 20.5176 8.87549 19.2178 8.82422H19.2171C17.9163 8.87618 17.9179 10.7338 19.2178 10.785Z" fill="#ED5007"/>
<path d="M30.9795 10.785C32.2803 10.7332 32.2793 8.87549 30.9795 8.82422H30.9788C29.6779 8.87618 29.6797 10.7338 30.9795 10.785Z" fill="#ED5007"/>
<path d="M42.7451 10.785C44.0459 10.7332 44.0449 8.87549 42.7451 8.82422H42.7444C41.4436 8.87618 41.4453 10.7338 42.7451 10.785Z" fill="#ED5007"/>
<path d="M50.1962 23.0393C50.1962 21.7171 49.6477 20.4799 48.7506 19.5795C50.6643 18.3539 50.6679 15.4798 48.7585 14.2492C49.6464 13.3616 50.1963 12.1359 50.1963 10.7842C50.1962 4.83775 45.3583 0 39.4118 0H10.7843C4.83785 0 0 4.83775 0 10.7843C0 12.136 0.549903 13.3616 1.43775 14.2492C-0.472452 15.4805 -0.467158 18.3545 1.44549 19.5794C-0.469707 21.4349 -0.46304 24.6684 1.43765 26.5042C-0.47255 27.7354 -0.467256 30.6096 1.44559 31.8343C-0.675688 33.8945 -0.394216 37.5035 1.96393 39.2158C0.772256 40.1109 0 41.5356 0 43.1372V45.098C0 47.801 2.19902 50 4.90197 50H45.2942C47.9972 50 50.1962 47.801 50.1962 45.098V43.1372C50.1962 41.5355 49.4239 40.1108 48.2323 39.2157C50.5911 37.5026 50.8712 33.8938 48.7505 31.8343C50.6642 30.6088 50.6678 27.7347 48.7584 26.5041C49.6463 25.6165 50.1962 24.3909 50.1962 23.0393ZM4.90187 25.9804C1.52687 25.9002 0.849806 21.3083 4.03079 20.231C4.31824 20.3343 4.55913 20.4906 4.84344 20.6752C6.46413 21.8691 8.67717 21.8661 10.2936 20.6752C10.8097 20.3402 11.1825 20.0981 11.9509 20.0981C12.7193 20.0981 13.0922 20.3401 13.6082 20.6752C15.2289 21.8691 17.4419 21.8662 19.0584 20.6752C19.5744 20.3402 19.9472 20.0981 20.7156 20.0981C21.4841 20.0981 21.8569 20.3401 22.3729 20.6752C23.9936 21.8691 26.2066 21.8661 27.8231 20.6752C28.3392 20.3402 28.7119 20.0981 29.4804 20.0981C30.2488 20.0981 30.6216 20.3401 31.1376 20.6752C32.7582 21.869 34.9713 21.8662 36.5877 20.6752C37.1038 20.3402 37.4765 20.0981 38.245 20.0981C39.0134 20.0981 39.3863 20.3401 39.9022 20.6752C41.5229 21.8691 43.736 21.8662 45.3524 20.6752C45.6368 20.4906 45.8776 20.3343 46.1651 20.231C49.3482 21.3099 48.6669 25.9009 45.2942 25.9804H4.90187ZM10.7843 1.96079H39.4118C44.2771 1.96079 48.2354 5.91903 48.2354 10.7843C48.2354 12.4061 46.916 13.7255 45.2942 13.7255H4.90197C3.2802 13.7255 1.96079 12.4061 1.96079 10.7843C1.96079 5.91903 5.91903 1.96079 10.7843 1.96079ZM47.0099 15.6863C48.6349 15.7534 48.6357 18.0699 47.0099 18.1373C45.6607 18.1373 44.8978 18.6327 44.2848 19.0307C43.7687 19.3658 43.396 19.6079 42.6275 19.6079C41.8591 19.6079 41.4863 19.3658 40.9703 19.0307C39.3496 17.8369 37.1365 17.8398 35.5201 19.0307C35.0041 19.3657 34.6312 19.6079 33.8628 19.6079C33.0944 19.6079 32.7215 19.3658 32.2056 19.0307C30.5849 17.8369 28.3718 17.8398 26.7553 19.0307C26.2393 19.3658 25.8664 19.6079 25.0981 19.6079C24.3298 19.6079 23.9568 19.3658 23.4408 19.0307C21.8168 17.8359 19.608 17.8403 17.9906 19.0307C17.4745 19.3658 17.1018 19.6079 16.3334 19.6079C15.5649 19.6079 15.1921 19.3658 14.6761 19.0307C13.0554 17.8369 10.8424 17.8398 9.2259 19.0307C8.70982 19.3658 8.33698 19.6079 7.56854 19.6079C6.80011 19.6079 6.42727 19.3658 5.91129 19.0307C5.29825 18.6327 4.5354 18.1373 3.18618 18.1373C1.56177 18.0706 1.55991 15.7538 3.18618 15.6863H47.0099ZM4.90187 38.2354C1.52687 38.155 0.849904 33.5634 4.03079 32.4859C4.31824 32.5892 4.55913 32.7456 4.84344 32.9302C6.46413 34.124 8.67717 34.121 10.2936 32.9302C10.8097 32.5952 11.1825 32.353 11.9509 32.353C12.7193 32.353 13.0922 32.5951 13.6082 32.9302C14.7523 33.7808 16.5333 34.1666 18.1234 33.4623L22.8964 38.2354H4.90187ZM30.1737 41.353C29.8127 41.7302 29.1483 41.7302 28.7872 41.353L19.9075 32.4733C20.1329 32.3969 20.3885 32.353 20.7157 32.353C21.4842 32.353 21.857 32.5951 22.373 32.9302C23.9937 34.124 26.2067 34.121 27.8232 32.9302C28.3393 32.5952 28.712 32.353 29.4805 32.353C30.2489 32.353 30.6217 32.5951 31.1377 32.9302C32.7583 34.1239 34.9714 34.1211 36.5878 32.9302C37.1039 32.5952 37.4766 32.353 38.2451 32.353C38.5724 32.353 38.8279 32.3969 39.0534 32.4733L30.1737 41.353ZM48.2354 45.0981C48.2354 46.7199 46.916 48.0393 45.2942 48.0393H4.90197C3.2802 48.0393 1.96079 46.7199 1.96079 45.0981V43.1373C1.96079 41.5156 3.2802 40.1962 4.90197 40.1962H24.8572L27.4006 42.7396C28.4916 43.8774 30.4692 43.8773 31.5602 42.7396L34.1036 40.1962H45.2942C46.916 40.1962 48.2354 41.5156 48.2354 43.1373V45.0981ZM45.2942 38.2354H36.0644L40.8374 33.4623C42.4304 34.1676 44.2108 33.7789 45.3525 32.9302C45.6369 32.7456 45.8776 32.5892 46.1652 32.4859C49.3482 33.5649 48.6669 38.1559 45.2942 38.2354ZM47.0099 27.9412C48.6349 28.0083 48.6357 30.3249 47.0099 30.3922C45.6607 30.3922 44.8978 30.8876 44.2848 31.2857C43.7687 31.6208 43.396 31.8628 42.6275 31.8628C41.8591 31.8628 41.4863 31.6208 40.9703 31.2857C39.3496 30.0918 37.1365 30.0948 35.5201 31.2857C35.0041 31.6207 34.6312 31.8628 33.8628 31.8628C33.0944 31.8628 32.7215 31.6208 32.2056 31.2857C30.5849 30.0918 28.3718 30.0948 26.7553 31.2857C26.2393 31.6208 25.8664 31.8628 25.0981 31.8628C24.3298 31.8628 23.9568 31.6208 23.4408 31.2857C21.8168 30.0908 19.608 30.0953 17.9906 31.2857C17.4745 31.6208 17.1018 31.8628 16.3334 31.8628C15.5649 31.8628 15.1921 31.6208 14.6761 31.2857C13.0554 30.0918 10.8424 30.0948 9.2259 31.2857C8.70982 31.6208 8.33698 31.8628 7.56854 31.8628C6.80011 31.8628 6.42727 31.6208 5.91129 31.2857C5.29825 30.8876 4.5354 30.3922 3.18618 30.3922C1.56177 30.3256 1.55991 28.0087 3.18618 27.9412H47.0099Z" fill="#ED5007"/>
</svg>
