<svg width="246" height="7" viewBox="0 0 246 7" fill="none" xmlns="http://www.w3.org/2000/svg">
<path d="M162.061 7.00011C161.357 7.00011 160.772 6.90063 160.549 6.83987C159.932 6.67069 159.161 6.39369 157.707 5.51802C156.747 4.9402 156.051 4.44101 155.49 4.04011C154.554 3.36995 154.039 3.00062 153.113 2.80762C153.022 2.78855 152.547 2.69562 151.968 2.69562C151.959 2.69562 151.95 2.69562 151.941 2.69562C150.306 2.70396 149.281 3.49266 148.093 4.40527C146.963 5.27498 145.681 6.26026 143.777 6.58312C141.682 6.93875 139.207 6.43837 137.318 5.27736C136.884 5.01049 136.447 4.68703 135.984 4.3451C134.986 3.60704 133.856 2.77068 132.778 2.58304C132.183 2.47939 131.53 2.45973 131.524 2.45913C131.517 2.45913 130.581 2.43709 129.665 2.6021C129.509 2.63189 128.508 2.93509 124.099 5.98981C123.912 6.11908 123.879 6.14231 123.838 6.16733C122.3 7.10853 120.46 6.6278 119.856 6.46935C119.256 6.31268 118.494 6.04342 117.001 5.14393C116.041 4.5661 115.344 4.06691 114.784 3.66601C113.848 2.99585 113.332 2.62652 112.406 2.43352C112.314 2.41446 111.826 2.31974 111.234 2.32212C109.599 2.33046 108.574 3.11916 107.387 4.03177C106.256 4.90148 104.974 5.88676 103.07 6.20903C100.975 6.56406 98.5002 6.06427 96.6113 4.90327C96.0852 4.5798 95.6289 4.21822 95.1873 3.86855C94.2465 3.12333 93.4338 2.47998 92.0453 2.20418C91.8205 2.1595 91.4022 2.0767 90.8657 2.08563C89.4901 2.10827 88.6406 2.73077 87.4646 3.59334C86.391 4.38025 85.0546 5.35957 82.9979 6.05772C81.5041 6.56466 80.3244 6.6969 79.1748 6.48722C78.6995 6.40025 77.9358 6.16912 76.238 5.14333C75.2715 4.55955 74.5727 4.06036 74.0111 3.65946C73.0464 2.97024 72.5619 2.62474 71.6457 2.43352C71.5538 2.41446 71.0632 2.31915 70.4734 2.32212C68.8387 2.33046 67.8134 3.11916 66.6259 4.03177C65.4952 4.90148 64.2133 5.88676 62.3098 6.20903C60.2145 6.56406 57.7395 6.06427 55.8506 4.90327C55.4164 4.63639 54.9791 4.31293 54.5167 3.97101C53.5189 3.23294 52.3877 2.39659 51.3104 2.20894C50.715 2.10529 50.0628 2.08563 50.0566 2.08504C50.0493 2.08504 49.114 2.063 48.1978 2.228C47.3354 2.38348 45.0331 3.308 42.4901 5.69554L41 4.19677C43.7151 1.6478 46.3634 0.439136 47.8058 0.179413C48.9523 -0.0272924 50.0701 0.000705242 50.1173 0.00189663C50.1503 0.00308802 50.9312 0.0257244 51.687 0.157373C53.2733 0.433775 54.6232 1.43156 55.8133 2.312C56.2377 2.62593 56.6389 2.92258 56.9947 3.1412C58.4304 4.02343 60.3713 4.42135 61.9404 4.15567C63.3087 3.92395 64.274 3.18171 65.295 2.39659C66.6038 1.38986 68.0878 0.249705 70.4612 0.237196C71.2531 0.233622 71.9103 0.35693 72.0934 0.395055C73.4592 0.679201 74.2622 1.25285 75.2789 1.979C75.8381 2.37872 76.4726 2.83144 77.3686 3.37293C78.3841 3.98649 79.1656 4.36476 79.5692 4.43862C80.1137 4.53811 80.8628 4.57444 82.2911 4.08955C84.0317 3.49922 85.1207 2.70099 86.1742 1.92897C87.5026 0.955007 88.757 0.0358512 90.8296 0.00189663C91.6001 -0.0112086 92.1899 0.106143 92.4734 0.162138C94.3782 0.539808 95.5272 1.44943 96.5403 2.25243C96.9506 2.57768 97.3389 2.88506 97.756 3.1412C99.1917 4.02343 101.133 4.42135 102.702 4.15567C104.07 3.92395 105.035 3.18171 106.056 2.39659C107.365 1.38986 108.849 0.249705 111.222 0.237791C112.014 0.233026 112.672 0.357526 112.854 0.39565C114.232 0.682179 115.036 1.25881 116.054 1.98794C116.611 2.38646 117.241 2.83859 118.128 3.37233C119.559 4.2343 120.135 4.38442 120.411 4.45709C120.829 4.5667 121.936 4.85561 122.681 4.41182C122.711 4.39156 122.771 4.35046 122.854 4.29268C127.319 1.19865 128.63 0.669074 129.273 0.552913C130.419 0.346208 131.537 0.374205 131.584 0.375397C131.617 0.376588 132.398 0.399224 133.154 0.530873C134.74 0.807275 136.089 1.80506 137.28 2.6855C137.705 2.99943 138.106 3.29608 138.462 3.5147C139.897 4.39693 141.838 4.79485 143.407 4.52917C144.776 4.29745 145.74 3.55521 146.762 2.77009C148.071 1.76336 149.555 0.623205 151.928 0.611292C152.723 0.60593 153.378 0.731026 153.56 0.76915C154.938 1.05568 155.742 1.63231 156.76 2.36144C157.317 2.75996 157.947 3.21209 158.834 3.74583C160.063 4.48568 160.664 4.70609 161.129 4.83357C161.56 4.95033 162.957 4.99143 163.463 4.61793C167.634 1.53343 170.03 0.375397 172.257 0.375397C172.28 0.375397 172.303 0.375397 172.326 0.375397C174.383 0.398033 175.747 0.884119 179.307 3.57308C181.058 4.89493 182.877 4.95628 183.996 4.57325C184.582 4.3725 185.214 3.88701 185.946 3.32408C187.52 2.11423 189.476 0.610696 192.63 0.610696C192.654 0.610696 192.678 0.610696 192.703 0.610696C194.752 0.625588 196.116 1.11108 199.688 3.80838C201.366 5.07542 202.812 5.06053 204.467 4.6489L204.999 6.6689C203.133 7.13354 200.886 7.35216 198.374 5.45547C194.9 2.83323 194.036 2.70575 192.687 2.69622C192.668 2.69622 192.649 2.69622 192.631 2.69622C190.221 2.69622 188.724 3.8471 187.275 4.96045C186.429 5.61035 185.631 6.22452 184.708 6.54023C184.052 6.76481 182.983 6.98998 181.619 6.78506C180.333 6.59206 179.112 6.06546 177.992 5.22018C174.529 2.60508 173.659 2.47522 172.302 2.46092C170.891 2.44484 169.072 3.08878 164.759 6.27813C163.988 6.84821 162.933 7.0013 162.06 7.0013L162.061 7.00011Z" fill="#ED5007"/>
<path d="M203.061 7.00011C202.357 7.00011 201.772 6.90063 201.549 6.83987C200.932 6.67069 200.161 6.39369 198.707 5.51802C197.747 4.9402 197.051 4.44101 196.49 4.04011C195.554 3.36995 195.039 3.00062 194.113 2.80762C194.022 2.78855 193.547 2.69562 192.968 2.69562C192.959 2.69562 192.95 2.69562 192.941 2.69562C191.306 2.70396 190.281 3.49266 189.093 4.40527C187.963 5.27498 186.681 6.26026 184.777 6.58312C182.682 6.93875 180.207 6.43837 178.318 5.27736C177.884 5.01049 177.447 4.68703 176.984 4.3451C175.986 3.60704 174.856 2.77068 173.778 2.58304C173.183 2.47939 172.53 2.45973 172.524 2.45913C172.517 2.45913 171.581 2.43709 170.665 2.6021C170.509 2.63189 169.508 2.93509 165.099 5.98981C164.912 6.11908 164.879 6.14231 164.838 6.16733C163.3 7.10853 161.46 6.6278 160.856 6.46935C160.256 6.31268 159.494 6.04342 158.001 5.14393C157.041 4.5661 156.344 4.06691 155.784 3.66601C154.848 2.99585 154.332 2.62652 153.406 2.43352C153.314 2.41446 152.826 2.31974 152.234 2.32212C150.599 2.33046 149.574 3.11916 148.387 4.03177C147.256 4.90148 145.974 5.88676 144.07 6.20903C141.975 6.56406 139.5 6.06427 137.611 4.90327C137.085 4.5798 136.629 4.21822 136.187 3.86855C135.247 3.12333 134.434 2.47998 133.045 2.20418C132.821 2.1595 132.402 2.0767 131.866 2.08563C130.49 2.10827 129.641 2.73077 128.465 3.59334C127.391 4.38025 126.055 5.35957 123.998 6.05772C122.504 6.56466 121.324 6.6969 120.175 6.48722C119.7 6.40025 118.936 6.16912 117.238 5.14333C116.272 4.55955 115.573 4.06036 115.011 3.65946C114.046 2.97024 113.562 2.62474 112.646 2.43352C112.554 2.41446 112.063 2.31915 111.473 2.32212C109.839 2.33046 108.813 3.11916 107.626 4.03177C106.495 4.90148 105.213 5.88676 103.31 6.20903C101.214 6.56406 98.7395 6.06427 96.8506 4.90327C96.4164 4.63639 95.9791 4.31293 95.5167 3.97101C94.5189 3.23294 93.3877 2.39659 92.3104 2.20894C91.715 2.10529 91.0628 2.08563 91.0566 2.08504C91.0493 2.08504 90.114 2.063 89.1978 2.228C88.3354 2.38348 86.0331 3.308 83.4901 5.69554L82 4.19677C84.7151 1.6478 87.3634 0.439136 88.8058 0.179413C89.9523 -0.0272924 91.0701 0.000705242 91.1173 0.00189663C91.1503 0.00308802 91.9312 0.0257244 92.687 0.157373C94.2733 0.433775 95.6232 1.43156 96.8133 2.312C97.2377 2.62593 97.6389 2.92258 97.9947 3.1412C99.4304 4.02343 101.371 4.42135 102.94 4.15567C104.309 3.92395 105.274 3.18171 106.295 2.39659C107.604 1.38986 109.088 0.249705 111.461 0.237196C112.253 0.233622 112.91 0.35693 113.093 0.395055C114.459 0.679201 115.262 1.25285 116.279 1.979C116.838 2.37872 117.473 2.83144 118.369 3.37293C119.384 3.98649 120.166 4.36476 120.569 4.43862C121.114 4.53811 121.863 4.57444 123.291 4.08955C125.032 3.49922 126.121 2.70099 127.174 1.92897C128.503 0.955007 129.757 0.0358512 131.83 0.00189663C132.6 -0.0112086 133.19 0.106143 133.473 0.162138C135.378 0.539808 136.527 1.44943 137.54 2.25243C137.951 2.57768 138.339 2.88506 138.756 3.1412C140.192 4.02343 142.133 4.42135 143.702 4.15567C145.07 3.92395 146.035 3.18171 147.056 2.39659C148.365 1.38986 149.849 0.249705 152.222 0.237791C153.014 0.233026 153.672 0.357526 153.854 0.39565C155.232 0.682179 156.036 1.25881 157.054 1.98794C157.611 2.38646 158.241 2.83859 159.128 3.37233C160.559 4.2343 161.135 4.38442 161.411 4.45709C161.829 4.5667 162.936 4.85561 163.681 4.41182C163.711 4.39156 163.771 4.35046 163.854 4.29268C168.319 1.19865 169.63 0.669074 170.273 0.552913C171.419 0.346208 172.537 0.374205 172.584 0.375397C172.617 0.376588 173.398 0.399224 174.154 0.530873C175.74 0.807275 177.089 1.80506 178.28 2.6855C178.705 2.99943 179.106 3.29608 179.462 3.5147C180.897 4.39693 182.838 4.79485 184.407 4.52917C185.776 4.29745 186.74 3.55521 187.762 2.77009C189.071 1.76336 190.555 0.623205 192.928 0.611292C193.723 0.60593 194.378 0.731026 194.56 0.76915C195.938 1.05568 196.742 1.63231 197.76 2.36144C198.317 2.75996 198.947 3.21209 199.834 3.74583C201.063 4.48568 201.664 4.70609 202.129 4.83357C202.56 4.95033 203.957 4.99143 204.463 4.61793C208.634 1.53343 211.03 0.375397 213.257 0.375397C213.28 0.375397 213.303 0.375397 213.326 0.375397C215.383 0.398033 216.747 0.884119 220.307 3.57308C222.058 4.89493 223.877 4.95628 224.996 4.57325C225.582 4.3725 226.214 3.88701 226.946 3.32408C228.52 2.11423 230.476 0.610696 233.63 0.610696C233.654 0.610696 233.678 0.610696 233.703 0.610696C235.752 0.625588 237.116 1.11108 240.688 3.80838C242.366 5.07542 243.812 5.06053 245.467 4.6489L245.999 6.6689C244.133 7.13354 241.886 7.35216 239.374 5.45547C235.9 2.83323 235.036 2.70575 233.687 2.69622C233.668 2.69622 233.649 2.69622 233.631 2.69622C231.221 2.69622 229.724 3.8471 228.275 4.96045C227.429 5.61035 226.631 6.22452 225.708 6.54023C225.052 6.76481 223.983 6.98998 222.619 6.78506C221.333 6.59206 220.112 6.06546 218.992 5.22018C215.529 2.60508 214.659 2.47522 213.302 2.46092C211.891 2.44484 210.072 3.08878 205.759 6.27813C204.988 6.84821 203.933 7.0013 203.06 7.0013L203.061 7.00011Z" fill="#ED5007"/>
<path d="M121.061 7.00011C120.357 7.00011 119.772 6.90063 119.549 6.83987C118.932 6.67069 118.161 6.39369 116.707 5.51802C115.747 4.9402 115.051 4.44101 114.49 4.04011C113.554 3.36995 113.039 3.00062 112.113 2.80762C112.022 2.78855 111.547 2.69562 110.968 2.69562C110.959 2.69562 110.95 2.69562 110.941 2.69562C109.306 2.70396 108.281 3.49266 107.093 4.40527C105.963 5.27498 104.681 6.26026 102.777 6.58312C100.682 6.93875 98.207 6.43837 96.3181 5.27736C95.8838 5.01049 95.4465 4.68703 94.9841 4.3451C93.9864 3.60704 92.8558 2.77068 91.7778 2.58304C91.1825 2.47939 90.5302 2.45973 90.5241 2.45913C90.5167 2.45913 89.5815 2.43709 88.6646 2.6021C88.5091 2.63189 87.5077 2.93509 83.0991 5.98981C82.9123 6.11908 82.8786 6.14231 82.8382 6.16733C81.3003 7.10853 79.4604 6.6278 78.8559 6.46935C78.2557 6.31268 77.4937 6.04342 76.0005 5.14393C75.0408 4.5661 74.3438 4.06691 73.784 3.66601C72.8481 2.99585 72.3324 2.62652 71.4064 2.43352C71.3145 2.41446 70.8264 2.31974 70.2341 2.32212C68.5994 2.33046 67.5741 3.11916 66.3865 4.03177C65.2559 4.90148 63.974 5.88676 62.0704 6.20903C59.9752 6.56406 57.5002 6.06427 55.6113 4.90327C55.0852 4.5798 54.6289 4.21822 54.1873 3.86855C53.2465 3.12333 52.4338 2.47998 51.0453 2.20418C50.8205 2.1595 50.4022 2.0767 49.8657 2.08563C48.4901 2.10827 47.6406 2.73077 46.4646 3.59334C45.391 4.38025 44.0546 5.35957 41.9979 6.05772C40.5041 6.56466 39.3244 6.6969 38.1748 6.48722C37.6995 6.40025 36.9358 6.16912 35.238 5.14333C34.2715 4.55955 33.5727 4.06036 33.0111 3.65946C32.0464 2.97024 31.5619 2.62474 30.6457 2.43352C30.5538 2.41446 30.0632 2.31915 29.4734 2.32212C27.8387 2.33046 26.8134 3.11916 25.6259 4.03177C24.4952 4.90148 23.2133 5.88676 21.3098 6.20903C19.2145 6.56406 16.7395 6.06427 14.8506 4.90327C14.4164 4.63639 13.9791 4.31293 13.5167 3.97101C12.5189 3.23294 11.3877 2.39659 10.3104 2.20894C9.71504 2.10529 9.06276 2.08563 9.05663 2.08504C9.04929 2.08504 8.11404 2.063 7.19778 2.228C6.33542 2.38348 4.03313 3.308 1.49015 5.69554L0 4.19677C2.71509 1.6478 5.36342 0.439136 6.8058 0.179413C7.95235 -0.0272924 9.07011 0.000705242 9.11727 0.00189663C9.15034 0.00308802 9.93125 0.0257244 10.687 0.157373C12.2733 0.433775 13.6232 1.43156 14.8133 2.312C15.2377 2.62593 15.6389 2.92258 15.9947 3.1412C17.4304 4.02343 19.3713 4.42135 20.9404 4.15567C22.3087 3.92395 23.274 3.18171 24.295 2.39659C25.6038 1.38986 27.0878 0.249705 29.4612 0.237196C30.2531 0.233622 30.9103 0.35693 31.0934 0.395055C32.4592 0.679201 33.2622 1.25285 34.2789 1.979C34.8381 2.37872 35.4726 2.83144 36.3686 3.37293C37.3841 3.98649 38.1656 4.36476 38.5692 4.43862C39.1137 4.53811 39.8628 4.57444 41.2911 4.08955C43.0317 3.49922 44.1207 2.70099 45.1742 1.92897C46.5026 0.955007 47.757 0.0358512 49.8296 0.00189663C50.6001 -0.0112086 51.1899 0.106143 51.4734 0.162138C53.3782 0.539808 54.5272 1.44943 55.5403 2.25243C55.9506 2.57768 56.3389 2.88506 56.756 3.1412C58.1917 4.02343 60.1326 4.42135 61.7017 4.15567C63.07 3.92395 64.0353 3.18171 65.0562 2.39659C66.3651 1.38986 67.8491 0.249705 70.2225 0.237791C71.0138 0.233026 71.6716 0.357526 71.8541 0.39565C73.2315 0.682179 74.0357 1.25881 75.0543 1.98794C75.611 2.38646 76.2412 2.83859 77.1281 3.37233C78.5588 4.2343 79.1346 4.38442 79.4108 4.45709C79.8291 4.5667 80.9364 4.85561 81.6812 4.41182C81.7112 4.39156 81.7706 4.35046 81.8539 4.29268C86.3189 1.19865 87.6295 0.669074 88.2726 0.552913C89.4192 0.346208 90.537 0.374205 90.5841 0.375397C90.6172 0.376588 91.3981 0.399224 92.1539 0.530873C93.7402 0.807275 95.0895 1.80506 96.2801 2.6855C96.7046 2.99943 97.1063 3.29608 97.4616 3.5147C98.8972 4.39693 100.838 4.79485 102.407 4.52917C103.776 4.29745 104.74 3.55521 105.762 2.77009C107.071 1.76336 108.555 0.623205 110.928 0.611292C111.723 0.60593 112.378 0.731026 112.56 0.76915C113.938 1.05568 114.742 1.63231 115.76 2.36144C116.317 2.75996 116.947 3.21209 117.834 3.74583C119.063 4.48568 119.664 4.70609 120.129 4.83357C120.56 4.95033 121.957 4.99143 122.463 4.61793C126.634 1.53343 129.03 0.375397 131.257 0.375397C131.28 0.375397 131.303 0.375397 131.326 0.375397C133.383 0.398033 134.747 0.884119 138.307 3.57308C140.058 4.89493 141.877 4.95628 142.996 4.57325C143.582 4.3725 144.214 3.88701 144.946 3.32408C146.52 2.11423 148.476 0.610696 151.63 0.610696C151.654 0.610696 151.678 0.610696 151.703 0.610696C153.752 0.625588 155.116 1.11108 158.688 3.80838C160.366 5.07542 161.812 5.06053 163.467 4.6489L163.999 6.6689C162.133 7.13354 159.886 7.35216 157.374 5.45547C153.9 2.83323 153.036 2.70575 151.687 2.69622C151.668 2.69622 151.649 2.69622 151.631 2.69622C149.221 2.69622 147.724 3.8471 146.275 4.96045C145.429 5.61035 144.631 6.22452 143.708 6.54023C143.052 6.76481 141.983 6.98998 140.619 6.78506C139.333 6.59206 138.112 6.06546 136.992 5.22018C133.529 2.60508 132.659 2.47522 131.302 2.46092C129.891 2.44484 128.072 3.08878 123.759 6.27813C122.988 6.84821 121.933 7.0013 121.06 7.0013L121.061 7.00011Z" fill="#ED5007"/>
</svg>
