<svg width="45" height="45" viewBox="0 0 45 45" fill="none" xmlns="http://www.w3.org/2000/svg">
<g clip-path="url(#clip0_1728_54)">
<path d="M42.676 20.8354L39.1992 9.53587V2.63672C39.1992 1.18283 38.0164 0 36.5625 0H8.4375C6.98361 0 5.80078 1.18283 5.80078 2.63672V9.53587L2.324 20.8354C2.29825 20.9191 2.28516 21.0062 2.28516 21.0938V44.1212C2.28516 44.6066 2.67864 45.0001 3.16406 45.0001H41.8359C42.3213 45.0001 42.7148 44.6066 42.7148 44.1212V21.0938C42.7148 21.0062 42.7017 20.9191 42.676 20.8354ZM7.32885 10.5469H11.3649L9.4718 20.2149H4.35401L7.32885 10.5469ZM31.844 10.5469L33.7371 20.2149H11.263L13.156 10.5469H31.844ZM33.9258 21.9727V43.2423H11.0742V21.9727H33.9258ZM35.5282 20.2149L33.6351 10.5469H37.6712L40.646 20.2149H35.5282ZM7.55859 2.63672C7.55859 2.15209 7.95287 1.75781 8.4375 1.75781H36.5625C37.0471 1.75781 37.4414 2.15209 37.4414 2.63672V8.78906H7.55859V2.63672ZM4.04297 21.9727H9.31641V43.2423H4.04297V21.9727ZM35.6836 43.2422V21.9727H40.957V43.2422H35.6836Z" fill="#ED5007"/>
<path d="M28.6516 4.39453H16.3469C15.1808 4.44094 15.1817 6.10638 16.3469 6.15234H28.6516C29.8178 6.10585 29.8169 4.44059 28.6516 4.39453Z" fill="#ED5007"/>
<path d="M13.7109 32.8263C13.7109 33.9721 14.4456 34.9495 15.4688 35.3123V36.3418C15.4688 37.7957 16.6516 38.9785 18.1055 38.9785H26.8945C28.3484 38.9785 29.5312 37.7957 29.5312 36.3418V35.3122C31.8658 34.4793 31.858 31.1597 29.5216 30.3367C29.3708 28.0493 27.4618 26.2344 25.1367 26.2344H19.8633C17.5383 26.2344 15.6293 28.0492 15.4784 30.3367C14.4503 30.6968 13.7109 31.6767 13.7109 32.8263ZM26.8945 37.2207H18.1055C17.6208 37.2207 17.2266 36.8264 17.2266 36.3418V35.4629H27.7734V36.3418C27.7734 36.8265 27.3792 37.2207 26.8945 37.2207ZM19.8633 27.9922H25.1367C26.4409 27.9922 27.527 28.944 27.7368 30.1895H17.2632C17.473 28.944 18.5591 27.9922 19.8633 27.9922ZM16.3477 31.9473H28.6523C29.8186 31.9957 29.8178 33.6571 28.6523 33.7051H16.3477C15.1813 33.6567 15.1822 31.9953 16.3477 31.9473Z" fill="#ED5007"/>
</g>
<defs>
<clipPath id="clip0_1728_54">
<rect width="45" height="45" fill="white"/>
</clipPath>
</defs>
</svg>
