<svg width="54" height="54" viewBox="0 0 54 54" fill="none" xmlns="http://www.w3.org/2000/svg">
<path d="M52.9453 46.6171H48.5531L51.2382 10.6368H52.1543C52.7604 10.6502 53.2775 10.079 53.2037 9.47716L52.7301 4.73974C52.6762 4.20058 52.2224 3.79 51.6805 3.79H47.4003L47.042 0.923901C46.9761 0.396033 46.5275 0 45.9955 0H27.9931C27.4612 0 27.0126 0.396138 26.9465 0.923901L26.5883 3.79H22.308C21.7661 3.79 21.3125 4.20058 21.2585 4.73974L20.7847 9.47716C20.7551 9.77373 20.8522 10.0688 21.0522 10.2898C21.2522 10.5107 21.5362 10.6368 21.8343 10.6368H22.7505L23.484 20.466H10.3063C5.48351 20.466 1.55998 24.3895 1.55998 29.2121C1.55998 30.3714 2.03997 31.4207 2.81168 32.1718C0.132363 34.0742 0.133734 38.1961 2.81179 40.0974C2.04018 40.8484 1.56019 41.8976 1.56019 43.0569V44.5953C1.56019 45.3293 1.75267 46.0191 2.08975 46.6172H1.05468C0.472182 46.6172 0 47.0895 0 47.6719V50.3086C0 52.344 1.65596 54 3.69139 54H50.3086C52.344 54 54 52.344 54 50.3086V47.6719C54 47.0893 53.5278 46.6171 52.9453 46.6171ZM46.4379 46.6171H43.3685L43.8886 33.01C45.4334 30.6868 45.5729 27.2473 44.2024 24.8026L44.744 10.6368H49.123L46.4379 46.6171ZM37.5679 40.0974C38.7331 39.2484 39.5113 37.8985 39.5832 36.3672C40.3465 36.1136 41.0535 35.755 41.6899 35.3098L41.2576 46.6171H38.2901C38.6271 46.0191 38.8196 45.3293 38.8196 44.5952V43.0568C38.8194 41.8976 38.3395 40.8483 37.5679 40.0974ZM11.952 33.3434H28.4277L21.4818 40.2894C20.8073 40.9935 19.5725 40.9935 18.898 40.2892L11.952 33.3434ZM31.3544 33.4001C31.3727 33.3817 31.3902 33.3628 31.4069 33.3435H34.6882C38.3919 33.4973 38.389 38.7733 34.6882 38.9257H25.8287L31.3544 33.4001ZM35.8825 22.679C43.1303 21.5352 45.9345 31.4181 39.2149 34.2575C38.8663 33.42 38.292 32.6992 37.568 32.1718C40.2114 29.5835 38.2474 24.6859 35.8825 22.679ZM31.7374 20.6247L31.3556 10.6367H35.9397V20.535C35.131 20.641 34.3385 20.8678 33.5966 21.2071C33.0078 20.947 32.3852 20.75 31.7374 20.6247ZM42.1859 22.3347C41.0301 21.3794 39.6079 20.7359 38.049 20.5338V10.6367H42.633L42.1859 22.3347ZM23.2626 5.89936H29.9829C31.3822 5.84367 31.3812 3.84526 29.9829 3.79H28.7141L28.9243 2.10936H45.0645L45.2746 3.79H38.9367C37.5373 3.84568 37.5384 5.84409 38.9367 5.89936H50.726L50.9889 8.52741H22.9998L23.2626 5.89936ZM24.8657 10.6368H29.2448L29.6205 20.466H25.5993L24.8657 10.6368ZM5.69128 31.2341C4.57638 31.2341 3.66924 30.3269 3.66924 29.212C3.66924 25.5525 6.64651 22.5752 10.3062 22.5752H30.0735C33.733 22.5752 36.7103 25.5525 36.7103 29.212C36.7103 30.3269 35.8032 31.2341 34.6883 31.2341H5.69128ZM2.90038 36.1344C2.90038 34.5954 4.1525 33.3434 5.69139 33.3434H8.97272C8.98938 33.3627 9.00689 33.3816 9.02524 33.4L14.5508 38.9255H5.69149C4.1525 38.9255 2.90038 37.6734 2.90038 36.1344ZM3.66956 44.5952V43.0568C3.66956 41.9419 4.57659 41.0349 5.69149 41.0349H16.6603L17.4063 41.7809C18.866 43.3034 21.5136 43.3034 22.9732 41.7809L23.7192 41.0349H34.6881C35.803 41.0349 36.71 41.9419 36.71 43.0568V44.5952C36.71 45.7101 35.803 46.6171 34.6881 46.6171H5.69149C4.57659 46.6171 3.66956 45.7101 3.66956 44.5952ZM51.8906 50.3085C51.8906 51.1808 51.1809 51.8905 50.3086 51.8905H3.69139C2.81906 51.8905 2.10937 51.1808 2.10937 50.3085V48.7265H51.8906V50.3085Z" fill="#ED5007"/>
</svg>
