<svg width="67" height="67" viewBox="0 0 67 67" fill="none" xmlns="http://www.w3.org/2000/svg">
<g clip-path="url(#clip0_1667_171)">
<path d="M53.6148 13.2328C52.2857 13.2328 50.9836 13.4242 49.729 13.8028C44.6607 1.79974 27.9874 -0.325201 20.0792 10.0721C10.3454 6.84202 -0.126003 14.481 0.0019835 24.7496C-0.121549 32.032 5.54036 38.7643 12.7088 39.9144V62.2969C12.7088 63.0203 13.2952 63.6069 14.0188 63.6069H53.0565C53.7799 63.6069 54.3665 63.0203 54.3665 62.2969V40.1293C71.6539 38.5424 71.0049 13.8705 53.6148 13.2328ZM15.3287 60.9869V57.0568H51.7465V60.9869H15.3287ZM53.6148 37.5301C53.4529 37.5301 53.2848 37.5263 53.1154 37.5186C52.39 37.4716 51.7319 38.1013 51.7466 38.8273V54.4369H15.3289V38.7724C15.3289 38.0981 14.8171 37.5341 14.146 37.4686C7.57622 36.8281 2.62196 31.3601 2.62196 24.7495C2.49359 15.8904 11.8954 9.49803 20.081 12.8521C20.6484 13.0752 21.2954 12.8775 21.6407 12.3745C28.3618 2.4394 43.8863 4.53683 47.7315 15.891C47.8494 16.2322 48.103 16.5099 48.4323 16.6579C48.7617 16.8062 49.1375 16.8118 49.471 16.6736C56.4683 13.6855 64.5388 19.0755 64.4535 26.6915C64.4534 32.6678 59.5912 37.5301 53.6148 37.5301Z" fill="#6B3116"/>
<path d="M21.8256 41.7812C21.1021 41.7812 20.5156 42.3679 20.5156 43.0912V49.1988C20.5849 50.9369 23.067 50.9356 23.1356 49.1988V43.0912C23.1356 42.3679 22.5491 41.7812 21.8256 41.7812Z" fill="#6B3116"/>
<path d="M29.6342 41.7812C28.9107 41.7812 28.3242 42.3679 28.3242 43.0912V49.1988C28.3935 50.9369 30.8756 50.9356 30.9442 49.1988V43.0912C30.9442 42.3679 30.3577 41.7812 29.6342 41.7812Z" fill="#6B3116"/>
<path d="M37.4428 41.7812C36.7194 41.7812 36.1328 42.3679 36.1328 43.0912V49.1988C36.2021 50.9369 38.6842 50.9356 38.7528 49.1988V43.0912C38.7528 42.3679 38.1662 41.7812 37.4428 41.7812Z" fill="#6B3116"/>
<path d="M45.2475 41.7812C44.5241 41.7812 43.9375 42.3679 43.9375 43.0912V49.1988C44.0068 50.9369 46.4888 50.9356 46.5575 49.1988V43.0912C46.5575 42.3679 45.971 41.7812 45.2475 41.7812Z" fill="#6B3116"/>
</g>
<defs>
<clipPath id="clip0_1667_171">
<rect width="67" height="67" fill="white"/>
</clipPath>
</defs>
</svg>
