<svg width="1848" height="185" viewBox="0 0 1848 185" fill="none" xmlns="http://www.w3.org/2000/svg">
<mask id="mask0_1675_1339" style="mask-type:alpha" maskUnits="userSpaceOnUse" x="0" y="0" width="1848" height="185">
<rect width="1848" height="185" fill="#D9D9D9"/>
</mask>
<g mask="url(#mask0_1675_1339)">
<mask id="mask1_1675_1339" style="mask-type:alpha" maskUnits="userSpaceOnUse" x="-14" y="0" width="1876" height="191">
<rect x="-13.1953" width="1874.4" height="191" fill="#D9D9D9"/>
</mask>
<g mask="url(#mask1_1675_1339)">
<path d="M-44.875 44.0919C-18.6035 44.2096 -27.9115 46.0841 -15.8758 49.1495C2.72035 53.8837 4.95029 57.699 25.0795 62.1538C36.1098 64.6017 55.9602 68.9977 78.638 67.0349C100.569 65.131 101.903 59.3015 129.051 55.6554C144.879 53.5309 157.353 53.7808 170.006 54.0307C201.355 54.6556 224.58 55.1113 239.323 62.1611C261.324 72.6733 241.633 86.9492 261.374 119.067C268.81 131.167 277.103 144.656 296.028 146.707C313.668 148.618 334.982 139.995 343.284 130.446C350.93 121.654 342.946 117.368 343.284 101.181C343.563 88.1034 343.922 70.9678 365.335 62.1611C382.01 55.3025 409.436 54.3101 428.351 58.9119C444.189 62.7639 446.26 68.6448 463.005 70.2915C476.066 71.578 487.395 69.233 497.658 67.0423C518.166 62.661 529.843 56.4493 535.468 54.0381C568.081 40.0194 616.781 58.9707 696.153 58.9193C769.164 58.8678 770.697 42.8055 815.873 49.1643C872.597 57.1476 882.642 84.2146 935.593 84.935C947.529 85.0968 964.553 81.7888 998.609 75.1801C1048.63 65.4692 1055.23 59.9484 1096.28 54.0454C1132.04 48.907 1155.12 49.054 1162.44 49.1643C1175.67 49.3774 1194.6 49.6715 1216 54.0454C1251.44 61.279 1250.77 77.7603 1267.98 88.5959C1289.66 102.24 1308.42 102.879 1318.4 102.012C1327.19 101.247 1343.72 99.5492 1354.63 84.9424C1363.87 72.5704 1364.52 67.6745 1373.54 65.4324C1383.11 63.0506 1396.72 64.9987 1405.05 68.6816C1421.11 75.8049 1416.12 88.8385 1414.49 107.702C1412.45 131.512 1409.38 167.334 1436.54 174.362C1451.25 178.163 1474.27 173.399 1483.8 166.232C1491.24 160.637 1488.04 155.411 1483.8 136.967C1478.88 115.589 1476.51 104.666 1480.66 93.0654C1483.86 84.0749 1487.84 72.9159 1505.86 65.425C1528.81 55.8832 1559.77 58.4341 1565.72 58.9193C1601.15 61.8303 1606.32 73.8054 1641.34 75.1801C1647.01 75.4006 1658.77 74.2464 1682.3 71.9308C1726.36 67.5936 1733.53 64.7708 1761.06 63.8004C1783.33 63.0138 1780.2 64.8002 1802.02 63.8004C1811.73 63.352 1849.23 60.3968 1866.49 57.2946V-515.457H-44.875V44.0919Z" fill="#FBAA1B"/>
</g>
</g>
</svg>
