<svg width="27" height="27" viewBox="0 0 27 27" fill="none" xmlns="http://www.w3.org/2000/svg">
<path d="M26.9999 12.4412C26.9999 11.7272 26.7049 11.0592 26.2224 10.5729C27.2518 9.91108 27.2537 8.35911 26.2267 7.69459C26.7042 7.21526 27 6.55339 27 5.82349C26.9999 2.61239 24.3977 0 21.1992 0H5.80077C2.60223 0 0 2.61239 0 5.82354C0 6.55344 0.295787 7.21526 0.773348 7.69459C-0.254126 8.35948 -0.251279 9.91145 0.777514 10.5729C-0.25265 11.5749 -0.249064 13.3209 0.773295 14.3123C-0.254179 14.9771 -0.251332 16.5292 0.777567 17.1905C-0.363445 18.303 -0.212045 20.2519 1.05637 21.1765C0.415388 21.6599 0 22.4292 0 23.2941V24.3529C0 25.8125 1.18283 27 2.63671 27H24.3632C25.8171 27 26.9999 25.8125 26.9999 24.3529V23.2941C26.9999 22.4292 26.5846 21.6598 25.9436 21.1765C27.2124 20.2514 27.363 18.3026 26.2223 17.1905C27.2517 16.5287 27.2536 14.9767 26.2266 14.3122C26.7042 13.8329 26.9999 13.1711 26.9999 12.4412ZM2.63666 14.0294C0.821284 13.9861 0.457101 11.5065 2.16812 10.9248C2.32273 10.9805 2.4523 11.0649 2.60523 11.1646C3.47698 11.8093 4.66735 11.8077 5.53684 11.1646C5.81443 10.9837 6.01492 10.853 6.42826 10.853C6.84159 10.853 7.04213 10.9837 7.31968 11.1646C8.19143 11.8093 9.3818 11.8078 10.2513 11.1646C10.5288 10.9837 10.7294 10.853 11.1427 10.853C11.556 10.853 11.7566 10.9837 12.0341 11.1646C12.9059 11.8093 14.0962 11.8077 14.9657 11.1646C15.2433 10.9837 15.4438 10.853 15.8571 10.853C16.2705 10.853 16.471 10.9837 16.7486 11.1646C17.6203 11.8092 18.8107 11.8078 19.6801 11.1646C19.9577 10.9837 20.1582 10.853 20.5715 10.853C20.9849 10.853 21.1854 10.9837 21.463 11.1646C22.3347 11.8093 23.5251 11.8078 24.3946 11.1646C24.5475 11.0649 24.6771 10.9805 24.8317 10.9248C26.5438 11.5074 26.1773 13.9865 24.3632 14.0294H2.63666ZM5.80077 1.05883H21.1992C23.8162 1.05883 25.9453 3.19628 25.9453 5.82354C25.9453 6.6993 25.2356 7.41178 24.3632 7.41178H2.63671C1.76438 7.41178 1.05469 6.6993 1.05469 5.82354C1.05469 3.19628 3.18378 1.05883 5.80077 1.05883ZM25.2861 8.47061C26.1602 8.50682 26.1606 9.75777 25.2861 9.79414C24.5604 9.79414 24.15 10.0616 23.8203 10.2766C23.5427 10.4575 23.3422 10.5883 22.9289 10.5883C22.5155 10.5883 22.315 10.4575 22.0374 10.2766C21.1657 9.63193 19.9753 9.63351 19.1058 10.2766C18.8283 10.4575 18.6277 10.5883 18.2144 10.5883C17.8011 10.5883 17.6005 10.4575 17.323 10.2766C16.4512 9.63193 15.2609 9.63351 14.3914 10.2766C14.1138 10.4575 13.9133 10.5883 13.5 10.5883C13.0867 10.5883 12.8861 10.4575 12.6086 10.2766C11.735 9.6314 10.5469 9.63378 9.67695 10.2766C9.39936 10.4575 9.19886 10.5883 8.78553 10.5883C8.3722 10.5883 8.17165 10.4575 7.89411 10.2766C7.02236 9.63193 5.83199 9.63351 4.96251 10.2766C4.68491 10.4575 4.48436 10.5883 4.07103 10.5883C3.6577 10.5883 3.45715 10.4575 3.17961 10.2766C2.84987 10.0616 2.43954 9.79414 1.71381 9.79414C0.840057 9.75814 0.839055 8.50703 1.71381 8.47061H25.2861ZM2.63666 20.6471C0.821284 20.6037 0.457153 18.1242 2.16812 17.5424C2.32273 17.5982 2.4523 17.6826 2.60523 17.7823C3.47698 18.427 4.66735 18.4254 5.53684 17.7823C5.81443 17.6014 6.01492 17.4706 6.42826 17.4706C6.84159 17.4706 7.04213 17.6013 7.31968 17.7823C7.93508 18.2416 8.89306 18.45 9.74835 18.0697L12.3157 20.6471H2.63666ZM16.2301 22.3306C16.0359 22.5343 15.6785 22.5343 15.4843 22.3306L10.708 17.5356C10.8292 17.4943 10.9667 17.4706 11.1428 17.4706C11.5561 17.4706 11.7566 17.6013 12.0342 17.7823C12.9059 18.427 14.0963 18.4254 14.9658 17.7823C15.2434 17.6014 15.4439 17.4706 15.8572 17.4706C16.2705 17.4706 16.4711 17.6013 16.7486 17.7823C17.6203 18.4269 18.8107 18.4254 19.6802 17.7823C19.9578 17.6014 20.1583 17.4706 20.5716 17.4706C20.7477 17.4706 20.8851 17.4943 21.0064 17.5356L16.2301 22.3306ZM25.9453 24.353C25.9453 25.2287 25.2356 25.9412 24.3632 25.9412H2.63671C1.76438 25.9412 1.05469 25.2287 1.05469 24.353V23.2942C1.05469 22.4184 1.76438 21.7059 2.63671 21.7059H13.3704L14.7385 23.0794C15.3253 23.6938 16.389 23.6938 16.9758 23.0794L18.3439 21.7059H24.3632C25.2356 21.7059 25.9453 22.4184 25.9453 23.2942V24.353ZM24.3632 20.6471H19.3986L21.966 18.0697C22.8228 18.4505 23.7805 18.2406 24.3946 17.7823C24.5475 17.6826 24.6771 17.5982 24.8317 17.5424C26.5438 18.125 26.1773 20.6042 24.3632 20.6471ZM25.2861 15.0883C26.1602 15.1245 26.1606 16.3754 25.2861 16.4118C24.5604 16.4118 24.15 16.6793 23.8203 16.8943C23.5427 17.0752 23.3422 17.2059 22.9289 17.2059C22.5155 17.2059 22.315 17.0752 22.0374 16.8943C21.1657 16.2496 19.9753 16.2512 19.1058 16.8943C18.8283 17.0752 18.6277 17.2059 18.2144 17.2059C17.8011 17.2059 17.6005 17.0752 17.323 16.8943C16.4512 16.2496 15.2609 16.2512 14.3914 16.8943C14.1138 17.0752 13.9133 17.2059 13.5 17.2059C13.0867 17.2059 12.8861 17.0752 12.6086 16.8943C11.735 16.2491 10.5469 16.2514 9.67695 16.8943C9.39936 17.0752 9.19886 17.2059 8.78553 17.2059C8.3722 17.2059 8.17165 17.0752 7.89411 16.8943C7.02236 16.2496 5.83199 16.2512 4.96251 16.8943C4.68491 17.0752 4.48436 17.2059 4.07103 17.2059C3.6577 17.2059 3.45715 17.0752 3.17961 16.8943C2.84987 16.6793 2.43954 16.4118 1.71381 16.4118C0.840057 16.3758 0.839055 15.1247 1.71381 15.0883H25.2861Z" fill="#ED5007"/>
</svg>
