<svg width="2514" height="286" viewBox="0 0 2514 286" fill="none" xmlns="http://www.w3.org/2000/svg">
<path d="M2514 0.5V193.335C2500.25 195.763 2470.38 198.087 2462.63 198.433C2445.26 199.215 2447.75 197.811 2430 198.433C2408.06 199.192 2402.35 201.401 2367.25 204.796C2348.52 206.603 2339.15 207.512 2334.63 207.339C2306.73 206.269 2302.6 196.879 2274.39 194.612C2269.66 194.233 2244.99 192.23 2226.69 199.698C2212.35 205.567 2209.18 214.301 2206.61 221.331C2203.31 230.41 2205.2 238.96 2209.12 255.691C2212.49 270.121 2215.03 274.217 2209.12 278.59C2201.53 284.193 2183.18 287.922 2171.46 284.953C2149.83 279.453 2152.27 251.41 2153.9 232.781C2155.19 218.017 2159.17 207.811 2146.37 202.241C2139.74 199.365 2128.89 197.834 2121.26 199.698C2114.08 201.447 2113.57 205.291 2106.21 214.968C2097.52 226.394 2084.34 227.729 2077.33 228.328C2069.38 229.006 2054.44 228.512 2037.16 217.822C2023.44 209.353 2023.98 196.442 1995.75 190.781C1978.7 187.363 1963.62 187.133 1953.08 186.96C1947.26 186.88 1928.86 186.765 1900.38 190.781C1867.69 195.406 1862.42 199.721 1822.58 207.327C1795.46 212.506 1781.89 215.083 1772.38 214.957C1730.2 214.393 1722.19 193.22 1677 186.96C1641.02 181.989 1639.79 194.566 1581.63 194.601C1518.39 194.635 1479.61 179.803 1453.62 190.781C1449.14 192.668 1439.83 197.535 1423.49 200.953C1415.33 202.679 1406.3 204.497 1395.88 203.496C1382.54 202.207 1380.89 197.604 1368.28 194.589C1353.2 190.988 1331.36 191.77 1318.08 197.132C1301.01 204.025 1300.73 217.442 1300.51 227.672C1300.24 240.341 1306.6 243.701 1300.51 250.57C1293.89 258.05 1276.92 264.793 1262.85 263.297C1247.78 261.686 1241.17 251.134 1235.25 241.664C1219.52 216.521 1235.21 205.36 1217.68 197.121C1205.94 191.609 1187.43 191.252 1162.47 190.758C1152.4 190.562 1142.45 190.366 1129.82 192.035C1108.21 194.888 1107.14 199.457 1089.66 200.941C1071.6 202.472 1055.78 199.031 1047 197.121C1030.96 193.634 1030.33 188.767 1015.53 185.062C1011.09 183.945 999.906 177.329 981.951 185.188C969.992 190.412 987.756 262.353 949.087 262.86C913.526 263.32 914.43 238.776 896.697 239.386C874.761 240.145 879.646 201.378 844.545 204.773C825.797 206.579 816.439 207.489 811.919 207.316C784.019 206.246 779.895 196.856 751.678 194.589C746.936 194.21 722.271 192.207 703.983 199.675C689.629 205.544 686.457 214.278 683.903 221.308C680.604 230.387 682.492 238.937 686.409 255.668C689.788 270.097 692.325 274.194 686.409 278.567C678.812 284.17 660.46 287.899 648.755 284.93C627.104 279.43 629.563 251.387 631.181 232.758C632.481 217.994 636.462 207.788 623.662 202.218C617.017 199.342 606.167 197.811 598.554 199.675C591.369 201.424 590.845 205.268 583.486 214.945C574.794 226.371 561.629 227.706 554.619 228.304C546.672 228.983 531.715 228.489 514.458 217.799C500.754 209.33 501.293 196.419 473.044 190.758C455.994 187.34 440.91 187.11 430.378 186.937C424.557 186.857 406.174 186.742 377.671 190.758C344.965 195.383 339.715 199.698 299.872 207.304C272.733 212.483 259.172 215.06 249.671 214.934C207.496 214.37 199.486 193.197 154.298 186.937C118.309 181.966 117.087 194.543 58.9244 194.578C36.338 194.589 16.8763 192.702 0 190.781V0.5H2514Z" fill="#FBAA1B"/>
</svg>
