<svg width="98" height="98" viewBox="0 0 98 98" fill="none" xmlns="http://www.w3.org/2000/svg">
<circle cx="49" cy="49" r="49" fill="#A8BE5B"/>
<path d="M73.0234 67.1641H68.9566L71.4428 33.8489H72.291C72.8522 33.8613 73.3311 33.3324 73.2627 32.7752L72.8241 28.3887C72.7742 27.8894 72.3541 27.5093 71.8523 27.5093H67.8892L67.5574 24.8555C67.4964 24.3667 67.081 24 66.5884 24H49.9195C49.427 24 49.0116 24.3668 48.9505 24.8555L48.6187 27.5093H44.6556C44.1538 27.5093 43.7338 27.8894 43.6838 28.3887L43.2451 32.7752C43.2177 33.0498 43.3076 33.323 43.4928 33.5276C43.6779 33.7322 43.9409 33.8489 44.2169 33.8489H45.0652L45.7444 42.95H33.5428C29.0773 42.95 25.4444 46.5829 25.4444 51.0483C25.4444 52.1218 25.8889 53.0933 26.6034 53.7887C24.1226 55.5503 24.1238 59.3669 26.6035 61.1273C25.8891 61.8227 25.4446 62.7942 25.4446 63.8676V65.292C25.4446 65.9716 25.6228 66.6104 25.935 67.1642H24.9766C24.4372 67.1642 24 67.6015 24 68.1407V70.5821C24 72.4668 25.5333 74.0001 27.418 74.0001H70.582C72.4667 74.0001 74 72.4668 74 70.5821V68.1407C74 67.6013 73.5628 67.1641 73.0234 67.1641ZM66.9981 67.1641H64.156L64.6376 54.5649C66.068 52.4138 66.1971 49.229 64.9282 46.9654L65.4296 33.8489H69.4843L66.9981 67.1641ZM58.7851 61.1273C59.864 60.3412 60.5845 59.0913 60.6511 57.6734C61.3579 57.4385 62.0125 57.1065 62.6018 56.6943L62.2015 67.1641H59.4538C59.7659 66.6104 59.9441 65.9716 59.9441 65.2919V63.8675C59.9439 62.7942 59.4996 61.8226 58.7851 61.1273ZM35.0667 54.8736H50.322L43.8905 61.305C43.266 61.957 42.1227 61.957 41.4982 61.3049L35.0667 54.8736ZM53.0318 54.926C53.0488 54.9091 53.065 54.8916 53.0805 54.8737H56.1187C59.5481 55.0161 59.5454 59.9012 56.1187 60.0423H47.9154L53.0318 54.926ZM57.2246 44.9991C63.9355 43.9401 66.532 53.0909 60.3101 55.72C59.9874 54.9445 59.4555 54.2771 58.7852 53.7887C61.2328 51.3922 59.4142 46.8573 57.2246 44.9991ZM53.3865 43.097L53.033 33.8488H57.2775V43.0139C56.5287 43.112 55.7949 43.3221 55.108 43.6363C54.5628 43.3954 53.9863 43.213 53.3865 43.097ZM63.061 44.6803C61.9909 43.7958 60.674 43.1999 59.2305 43.0128V33.8488H63.475L63.061 44.6803ZM45.5395 29.4624H51.7619C53.0576 29.4108 53.0566 27.5604 51.7619 27.5093H50.5871L50.7817 25.9531H65.7264L65.9209 27.5093H60.0525C58.7568 27.5608 58.7578 29.4112 60.0525 29.4624H70.9686L71.2119 31.8958H45.2961L45.5395 29.4624ZM47.0238 33.8489H51.0785L51.4264 42.95H47.703L47.0238 33.8489ZM29.2697 52.9205C28.2374 52.9205 27.3974 52.0806 27.3974 51.0482C27.3974 47.6598 30.1542 44.903 33.5427 44.903H51.8458C55.2343 44.903 57.991 47.6598 57.991 51.0482C57.991 52.0806 57.1511 52.9205 56.1188 52.9205H29.2697ZM26.6855 57.4579C26.6855 56.0329 27.8449 54.8736 29.2698 54.8736H32.3081C32.3235 54.8915 32.3397 54.909 32.3567 54.926L37.473 60.0422H29.2699C27.8449 60.0422 26.6855 58.8829 26.6855 57.4579ZM27.3977 65.2919V63.8675C27.3977 62.8352 28.2376 61.9954 29.2699 61.9954H39.4262L40.1169 62.6861C41.4685 64.0958 43.92 64.0958 45.2715 62.6861L45.9622 61.9954H56.1186C57.1509 61.9954 57.9908 62.8352 57.9908 63.8675V65.2919C57.9908 66.3242 57.1509 67.1641 56.1186 67.1641H29.2699C28.2376 67.1641 27.3977 66.3242 27.3977 65.2919ZM72.0469 70.582C72.0469 71.3898 71.3898 72.0469 70.582 72.0469H27.418C26.6102 72.0469 25.9531 71.3898 25.9531 70.582V69.1172H72.0469V70.582Z" fill="#6B3116"/>
</svg>
