<svg width="98" height="98" viewBox="0 0 98 98" fill="none" xmlns="http://www.w3.org/2000/svg">
<circle cx="49" cy="49" r="49" fill="#E3723E"/>
<path d="M68.9942 30.7955L68.4059 24.8385C68.3458 24.2294 67.8398 23.7656 67.2353 23.7656H61.8033L61.3439 20.0437C61.2703 19.4475 60.7698 19 60.1765 19H37.8235C37.2302 19 36.7297 19.4475 36.6561 20.0437L36.1967 23.7656H30.7647C30.1602 23.7656 29.6542 24.2294 29.5941 24.8385L29.0058 30.7955C28.9728 31.1305 29.0811 31.4638 29.3041 31.7134C29.5271 31.963 29.8441 32.1054 30.1764 32.1054H31.4374L34.8855 78.8972C34.9314 79.5191 35.4429 80 36.0588 80H61.9412C62.557 80 63.0686 79.5191 63.1145 78.8972L66.5626 32.1054H67.8236C68.1559 32.1054 68.4729 31.963 68.6959 31.7134C68.919 31.4638 69.0272 31.1304 68.9942 30.7955ZM31.8294 26.1484H40.2941C41.855 26.0854 41.8539 23.828 40.2941 23.7656H38.568L38.8621 21.3828H59.1379L59.432 23.7656H51.4118C49.8508 23.8286 49.852 26.086 51.4118 26.1484H66.1706L66.5236 29.7226H31.4764L31.8294 26.1484ZM50.1765 77.6172V64.9185C51.9608 64.7059 53.6028 64.0156 54.9742 62.9776L54.4217 77.6172H50.1765ZM43.5785 77.6172L43.0258 62.9776C44.3972 64.0156 46.0392 64.7059 47.8235 64.9185V77.6172H43.5785ZM56.6471 54.8613C56.6471 59.1314 53.2166 62.6054 49 62.6054C38.8553 62.1801 38.8582 47.541 49 47.1172C53.2166 47.1172 56.6471 50.5912 56.6471 54.8613ZM47.8235 44.8041C45.7734 45.0484 43.9112 45.9234 42.4314 47.2316L41.8603 32.1054H47.8235V44.8041ZM55.5687 47.2316C54.089 45.9234 52.2266 45.0484 50.1765 44.8041V32.1054H56.1397L55.5687 47.2316ZM33.797 32.1054H39.5056L40.1843 50.0841C38.4837 53.1208 38.6559 57.4269 40.5701 60.3036L41.2237 77.6173H37.1508L33.797 32.1054ZM60.8493 77.6172H56.7764L57.4299 60.3037C59.3444 57.4271 59.5164 53.1207 57.8158 50.0841L58.4944 32.1054H64.203L60.8493 77.6172Z" fill="#6B3116"/>
</svg>
