<svg width="98" height="98" viewBox="0 0 98 98" fill="none" xmlns="http://www.w3.org/2000/svg">
<circle cx="49" cy="49" r="49" fill="#F5EBDC"/>
<g clip-path="url(#clip0_1667_194)">
<path d="M74.8565 58.6425C74.8565 56.99 74.1721 55.4459 73.0523 54.3222C75.441 52.7917 75.4451 49.2036 73.0614 47.6674C76.689 44.0372 74.3131 37.2446 70.8358 34.3808C68.3817 32.2651 65.0277 31.1 61.3913 31.1H50.2153V27.7257L64.7578 21.7512C65.7615 21.348 65.7614 19.8898 64.7579 19.4867L49.4566 13.1974C49.0791 13.0422 48.6488 13.0855 48.3097 13.3126C47.9705 13.5399 47.7671 13.9213 47.7671 14.3296V31.1H36.591C29.4063 30.984 23.0355 36.0116 23.126 43.3412C23.1258 45.0288 23.8124 46.559 24.921 47.6673C22.5358 49.2047 22.5425 52.7934 24.9309 54.3225C22.2822 56.8949 22.6337 61.4009 25.578 63.5388C24.0901 64.6564 23.1258 66.4353 23.1258 68.4351V69.6593C23.1258 73.0342 25.8715 75.7799 29.2464 75.7799H68.736C72.1108 75.7799 74.8565 73.0342 74.8565 69.6593V68.4351C74.8565 66.4353 73.8923 64.6564 72.4044 63.5388C73.8923 62.4213 74.8565 60.6425 74.8565 58.6425ZM50.2153 16.1563L61.072 20.6188L50.2153 25.079V16.1563ZM36.591 33.5484H61.3915C67.7751 33.5484 72.4084 37.6669 72.4084 43.3411C72.4084 45.3661 70.761 47.0135 68.7361 47.0135H29.2465C27.2216 47.0135 25.5742 45.3661 25.5742 43.3412C25.5742 37.6667 30.2074 33.5484 36.591 33.5484ZM70.8782 49.4617C72.9081 49.546 72.9074 52.4383 70.8782 52.522C69.1936 52.522 68.2411 53.1405 67.4756 53.6375C66.8314 54.0559 66.3659 54.3582 65.4064 54.3582C64.4471 54.3582 63.9814 54.0559 63.3372 53.6375C61.3137 52.1469 58.5503 52.1506 56.5321 53.6375C55.8878 54.0559 55.4224 54.3582 54.4629 54.3582C53.5035 54.3582 53.0379 54.0559 52.3937 53.6375C50.3702 52.1469 47.6068 52.1506 45.5888 53.6375C44.9444 54.0559 44.479 54.3582 43.5195 54.3582C42.5601 54.3582 42.0946 54.0559 41.4503 53.6375C39.4269 52.1469 36.6635 52.1506 34.6453 53.6375C34.001 54.0559 33.5355 54.3582 32.576 54.3582C31.6166 54.3582 31.1511 54.0559 30.5068 53.6375C29.7415 53.1404 28.7889 52.522 27.1043 52.522C25.0746 52.438 25.075 49.5455 27.1043 49.4617H70.8782ZM49.8567 66.2074C49.4058 66.6784 48.5766 66.6784 48.1256 66.2074L37.0384 55.1203C37.3198 55.0249 37.6389 54.9701 38.0475 54.9701C39.007 54.9701 39.4725 55.2723 40.1168 55.6907C42.1402 57.1813 44.9036 57.1776 46.9218 55.6907C47.5661 55.2723 48.0316 54.9701 48.991 54.9701C49.9505 54.9701 50.416 55.2723 51.0603 55.6907C53.0837 57.1813 55.8471 57.1776 57.8653 55.6907C58.5097 55.2723 58.9751 54.9701 59.9345 54.9701C60.3433 54.9701 60.6623 55.0249 60.9437 55.1203L49.8567 66.2074ZM29.2464 62.3148C25.0324 62.2145 24.1871 56.4816 28.1587 55.1362C28.5176 55.2651 28.8184 55.4602 29.1734 55.6908C30.6021 56.7529 32.8256 57.2347 34.811 56.3553L40.7706 62.3148H29.2464ZM72.4083 69.6595C72.4083 71.6844 70.7609 73.3318 68.736 73.3318H29.2464C27.2214 73.3318 25.574 71.6844 25.574 69.6595V68.4352C25.574 66.4104 27.2214 64.763 29.2464 64.763H43.2188L46.3945 67.9386C47.7567 69.3593 50.2259 69.3593 51.588 67.9386L54.7637 64.763H68.7361C70.761 64.763 72.4084 66.4104 72.4084 68.4352V69.6595H72.4083ZM68.7361 62.3148H57.2119L63.1714 56.3553C65.1604 57.2359 67.3833 56.7505 68.8091 55.6908C69.1641 55.4603 69.4647 55.2651 69.8237 55.1362C73.7983 56.4815 72.9469 62.216 68.7361 62.3148Z" fill="#6B3116"/>
<path d="M41.6478 39.0576C43.272 38.993 43.2707 36.6735 41.6478 36.6094H41.647C40.0227 36.6743 40.0249 38.9937 41.6478 39.0576Z" fill="#6B3116"/>
<path d="M56.3353 39.0576C57.9594 38.993 57.9582 36.6735 56.3353 36.6094H56.3344C54.7103 36.6743 54.7123 38.9937 56.3353 39.0576Z" fill="#6B3116"/>
<path d="M34.304 43.9521C35.9282 43.8875 35.9269 41.568 34.304 41.5039H34.3032C32.679 41.5688 32.6811 43.8882 34.304 43.9521Z" fill="#6B3116"/>
<path d="M48.9916 43.9521C50.6157 43.8875 50.6145 41.568 48.9916 41.5039H48.9907C47.3664 41.5688 47.3686 43.8882 48.9916 43.9521Z" fill="#6B3116"/>
<path d="M63.6791 43.9521C65.3032 43.8875 65.302 41.568 63.6791 41.5039H63.6782C62.0539 41.5688 62.0561 43.8882 63.6791 43.9521Z" fill="#6B3116"/>
</g>
<defs>
<clipPath id="clip0_1667_194">
<rect width="62.6744" height="62.6744" fill="white" transform="translate(17.6641 13.1055)"/>
</clipPath>
</defs>
</svg>
