<svg width="40" height="52" viewBox="0 0 40 52" fill="none" xmlns="http://www.w3.org/2000/svg">
<path d="M39.7647 17.8298C39.5747 17.6009 39.2949 17.4686 39.0001 17.4686H36.0004V7.10938C36.0004 6.54845 35.5526 6.09375 35.0005 6.09375H30.0007V4.0625C30.0007 3.50157 29.5529 3.04688 29.0007 3.04688H24.001V1.01562C24.001 0.454695 23.5533 0 23.0011 0H17.0014C16.4491 0 16.0014 0.454695 16.0014 1.01562V3.04688H11.0017C10.4495 3.04688 10.0018 3.50157 10.0018 4.0625V6.09375H5.00209C4.44983 6.09375 4.00215 6.54845 4.00215 7.10938V17.4688H1.00234C0.400572 17.4541 -0.0992981 18.0566 0.0168948 18.6564L5.51656 51.1564C5.59906 51.6438 6.01513 52 6.502 52H33.5003C33.9871 52 34.4032 51.6438 34.4857 51.1564L39.9855 18.6564C40.0356 18.3613 39.9548 18.0588 39.7647 17.8298ZM34.0005 8.125V17.4688H30.0007V8.125H34.0005ZM11.6654 19.904L10.3754 15.0141L14.2388 13.9626L17.1856 25.1322C14.7046 24.2972 12.6646 22.3888 11.6654 19.904ZM22.5996 9.32222L26.5343 10.052L23.9031 24.685C22.6255 25.3153 21.1547 25.6449 19.6749 25.5877L22.5996 9.32222ZM28.0008 13.2021V20.6433C27.542 21.5429 26.9413 22.3518 26.2314 23.0422L28.0008 13.2021ZM28.0008 5.07812V8.2677C27.9605 8.25469 27.9193 8.24413 27.8773 8.23641L24.001 7.51745V5.07812H28.0008ZM22.0012 2.03125V7.14634L21.9753 7.14157C21.432 7.04082 20.911 7.40634 20.8119 7.95823L18.3448 21.6787L18.0013 20.3768V2.03125H22.0012ZM16.0014 5.07812V12.796L15.9117 12.4558C15.843 12.1956 15.6755 11.9738 15.4459 11.8391C15.2163 11.7044 14.9434 11.6679 14.6871 11.7377L12.0018 12.4685V5.07812H16.0014ZM6.00193 8.125H10.0017V13.0128L8.89165 13.3148C8.37009 13.4457 8.03531 14.0345 8.1846 14.5588L8.95245 17.4688H6.00193V8.125ZM34.024 41.8945H27.9542C28.678 40.0192 28.678 37.6761 27.9542 35.8008H35.0553L34.024 41.8945ZM26.5009 38.8477C26.5009 42.4878 23.5852 45.4492 20.0013 45.4492C11.3787 45.0866 11.3812 32.6074 20.0013 32.2461C23.5852 32.2461 26.5009 35.2075 26.5009 38.8477ZM12.0484 41.8945H5.97853L4.9473 35.8008H12.0484C11.3246 37.6761 11.3246 40.0192 12.0484 41.8945ZM32.6576 49.9688H7.34485L6.32221 43.9258H13.1316C16.4313 48.6391 23.5731 48.637 26.8709 43.9258H33.6802L32.6576 49.9688ZM35.3989 33.7695H26.871C23.5714 29.0562 16.4294 29.0583 13.1316 33.7695H4.60362L2.18886 19.5H9.41642C12.524 30.2684 27.4822 30.2621 30.586 19.5H37.8137L35.3989 33.7695Z" fill="#ED5007"/>
</svg>
