<svg width="1400" height="177" viewBox="0 0 1400 177" fill="none" xmlns="http://www.w3.org/2000/svg">
<path d="M-34 44.6818C-14.0973 44.7994 -21.1489 46.6739 -12.0309 49.7394C2.05708 54.4735 3.74643 58.2888 18.9958 62.7436C27.3521 65.1915 42.3903 69.5876 59.5704 67.6248C76.1849 65.7209 77.1955 59.8914 97.7618 56.2452C109.753 54.1207 119.203 54.3706 128.789 54.6205C152.538 55.2454 170.132 55.7012 181.302 62.751C197.969 73.2631 183.051 87.5391 198.007 119.656C203.64 131.756 209.923 145.246 224.26 147.297C237.623 149.208 253.77 140.585 260.06 131.036C265.852 122.244 259.804 117.958 260.06 101.771C260.271 88.6933 260.543 71.5577 276.765 62.751C289.398 55.8923 310.175 54.8999 324.504 59.5018C336.503 63.3538 338.072 69.2347 350.757 70.8813C360.652 72.1678 369.234 69.8228 377.01 67.6321C392.546 63.2508 401.393 57.0391 405.654 54.6279C430.36 40.6092 467.255 59.5606 527.385 59.5091C582.696 59.4576 583.857 43.3953 618.082 49.7541C661.055 57.7375 668.664 84.8044 708.779 85.5248C717.822 85.6866 730.718 82.3786 756.518 75.7699C794.415 66.059 799.416 60.5383 830.51 54.6353C857.6 49.4968 875.09 49.6438 880.633 49.7541C890.656 49.9673 904.993 50.2614 921.207 54.6353C948.056 61.8689 947.551 78.3502 960.59 89.1858C977.009 102.83 991.225 103.469 998.782 102.602C1005.44 101.837 1017.97 100.139 1026.23 85.5322C1033.23 73.1602 1033.72 68.2643 1040.56 66.0222C1047.8 63.6404 1058.12 65.5885 1064.43 69.2714C1076.6 76.3947 1072.81 89.4283 1071.58 108.291C1070.04 132.102 1067.71 167.924 1088.29 174.952C1099.43 178.752 1116.87 173.989 1124.09 166.821C1129.72 161.227 1127.3 156.001 1124.09 137.556C1120.36 116.179 1118.57 105.255 1121.7 93.6553C1124.13 84.6648 1127.15 73.5057 1140.8 66.0149C1158.18 56.4731 1181.64 59.0239 1186.15 59.5091C1212.99 62.4202 1216.9 74.3952 1243.44 75.7699C1247.73 75.9904 1256.64 74.8362 1274.46 72.5206C1307.84 68.1834 1313.28 65.3606 1334.13 64.3903C1351 63.6037 1348.64 65.39 1365.16 64.3903C1372.52 63.9418 1400.93 60.9867 1414 57.8845V-514.867H-34V44.6818Z" fill="#FBAA1B"/>
</svg>
