<svg width="89" height="79" viewBox="0 0 89 79" fill="none" xmlns="http://www.w3.org/2000/svg">
<path d="M86.5014 24.1245C86.2729 24.4189 86.027 24.6981 85.7629 24.9611C86.0311 25.1341 86.2769 25.3243 86.5014 25.5287V33.7239C86.1693 34.0294 85.7904 34.3005 85.3658 34.5271C86.9707 37.7046 86.6172 40.523 85.4419 42.6009C85.896 43.2321 86.2515 43.9109 86.5014 44.6231V49.7227C86.2912 50.3388 86.0057 50.9367 85.6502 51.5093C85.9549 51.6985 86.2394 51.917 86.5014 52.1587V60.3297C86.2688 60.5471 86.0169 60.7434 85.7497 60.9174C86.0189 61.1865 86.2708 61.4728 86.5014 61.7743V75.6457C86.2617 75.9573 85.9996 76.2506 85.7193 76.5258H2.57124C2.29087 76.2506 2.02879 75.9573 1.78906 75.6457V61.7753C2.02067 61.4738 2.27157 61.1865 2.54076 60.9174C2.26852 60.7434 2.01762 60.5512 1.78906 60.3418V52.1496C1.97902 51.9756 2.1832 51.8138 2.40363 51.6641C2.15882 51.2817 1.95261 50.873 1.78906 50.443V45.0247C2.00746 44.3773 2.299 43.7572 2.65555 43.1876C2.31119 42.784 2.0227 42.347 1.78906 41.8857V35.1907C1.9587 34.8407 2.15577 34.5058 2.37925 34.1882C2.16796 34.0435 1.97191 33.8867 1.78906 33.7198V25.5277C2.01356 25.3223 2.2604 25.1321 2.52756 24.9611C2.26345 24.6981 2.01762 24.4189 1.78906 24.1245V10.8813C3.41944 7.42863 6.06867 4.54347 9.34871 2.61328H78.9418C82.2218 4.54347 84.8711 7.42863 86.5014 10.8813V24.1245Z" fill="#F5EBDC"/>
<path d="M23.4576 12.0204C25.7452 11.9294 25.7442 8.67496 23.4576 8.58594H23.4566C21.169 8.67698 21.1721 11.9314 23.4576 12.0204Z" fill="#ED5007"/>
<path d="M44.1494 12.0204C46.437 11.9294 46.436 8.67496 44.1494 8.58594H44.1484C41.8608 8.67698 41.8628 11.9314 44.1494 12.0204Z" fill="#ED5007"/>
<path d="M64.8447 12.0204C67.1323 11.9294 67.1313 8.67496 64.8447 8.58594H64.8437C62.5561 8.67698 62.5581 11.9314 64.8447 12.0204Z" fill="#ED5007"/>
<path d="M13.1104 18.8876C15.398 18.7966 15.3969 15.5421 13.1104 15.4531H13.1093C10.8217 15.5442 10.8238 18.7986 13.1104 18.8876Z" fill="#ED5007"/>
<path d="M33.8057 18.8876C36.0933 18.7966 36.0923 15.5421 33.8057 15.4531H33.8047C31.5171 15.5442 31.5191 18.7986 33.8057 18.8876Z" fill="#ED5007"/>
<path d="M54.4971 18.8876C56.7847 18.7966 56.7837 15.5421 54.4971 15.4531H54.4961C52.2085 15.5442 52.2105 18.7986 54.4971 18.8876Z" fill="#ED5007"/>
<path d="M75.1924 18.8876C77.48 18.7966 77.479 15.5421 75.1924 15.4531H75.1914C72.9038 15.5442 72.9058 18.7986 75.1924 18.8876Z" fill="#ED5007"/>
<path d="M88.2941 56.2445C88.2941 54.6329 87.6044 53.1782 86.5033 52.1585C86.2412 51.9167 85.9567 51.6982 85.652 51.509C86.0075 50.9364 86.293 50.3386 86.5033 49.7225C86.7623 48.9648 86.9075 48.1808 86.9319 47.3877C86.9614 46.4388 86.8141 45.506 86.5033 44.6229C86.2534 43.9107 85.8978 43.2319 85.4438 42.6006C86.6191 40.5228 86.9726 37.7044 85.3676 34.5268C85.7922 34.3002 86.1711 34.0291 86.5033 33.7236C88.8467 31.5739 88.8965 27.7125 86.5033 25.5284C86.2788 25.3241 86.0329 25.1339 85.7648 24.9609C86.0289 24.6979 86.2747 24.4187 86.5033 24.1243C87.6257 22.6746 88.2941 20.8598 88.2941 18.8911C88.2941 16.0292 87.6521 13.314 86.5033 10.8811C84.8729 7.42838 82.2236 4.54322 78.9436 2.61303C76.1217 0.952953 72.8335 0 69.3249 0H18.9692C15.4606 0 12.1724 0.952953 9.35052 2.61303C6.07048 4.54322 3.42124 7.42838 1.79087 10.8811C0.641991 13.314 0 16.0292 0 18.8911C0 20.8598 0.668402 22.6746 1.79087 24.1243C2.01943 24.4187 2.26525 24.6979 2.52936 24.9609C2.26221 25.1319 2.01537 25.322 1.79087 25.5274C-0.568853 27.6832 -0.588154 31.5527 1.79087 33.7196C1.97372 33.8865 2.16977 34.0433 2.38106 34.1879C2.15758 34.5056 1.96051 34.8404 1.79087 35.1905C0.787252 37.2572 0.737477 39.8106 1.79087 41.8854C2.02451 42.3467 2.313 42.7837 2.65736 43.1874C2.30081 43.7569 2.00927 44.3771 1.79087 45.0245C1.36525 46.283 1.21796 47.6446 1.40283 48.9344C1.47902 49.4615 1.60904 49.9663 1.79087 50.4428C1.95442 50.8727 2.16063 51.2814 2.40544 51.6638C2.18501 51.8135 1.98083 51.9754 1.79087 52.1494C-0.588154 54.3163 -0.568853 58.1868 1.79087 60.3415C2.01943 60.551 2.27033 60.7432 2.54257 60.9172C2.27338 61.1863 2.02248 61.4736 1.79087 61.775C0.663323 63.2388 0 65.0567 0 66.9778V70.4133C0 72.3809 0.668402 74.1958 1.79087 75.6454C2.0306 75.957 2.29268 76.2504 2.57304 76.5256C4.13028 78.0551 6.26754 79 8.62219 79H79.6719C82.0266 79 84.1638 78.0551 85.7211 76.5256C86.0014 76.2504 86.2635 75.957 86.5033 75.6454C87.6257 74.1958 88.2941 72.3809 88.2941 70.4133V66.9778C88.2941 65.0557 87.6308 63.2378 86.5033 61.774C86.2727 61.4725 86.0207 61.1863 85.7515 60.9172C86.0187 60.7432 86.2706 60.5469 86.5033 60.3294C87.6044 59.3107 88.2941 57.857 88.2941 56.2445ZM18.9692 3.43447H69.3249C77.8821 3.43447 84.8455 10.3682 84.8455 18.8911C84.8455 21.7318 82.5243 24.0433 79.6719 24.0433H8.62219C5.76979 24.0433 3.44867 21.7318 3.44867 18.8911C3.44867 10.3682 10.411 3.43447 18.9692 3.43447ZM3.44867 66.9778C3.44867 65.3916 4.20342 63.9227 5.39902 62.9637H82.8951C84.0907 63.9217 84.8455 65.3906 84.8455 66.9778V70.4133C84.8455 73.254 82.5243 75.5655 79.6719 75.5655H8.62219C5.76979 75.5655 3.44867 73.254 3.44867 70.4133V66.9778Z" fill="#ED5007"/>
<path d="M18.8309 35.9922H10.4688V51.9233H15.6311V46.5161H17.4494C19.7035 46.5161 24.1395 46.5161 24.1395 41.2304C24.1395 37.5612 22.0063 35.9922 18.8309 35.9922ZM16.8917 43.1373H15.6311V40.1196H17.3763C18.7344 40.1196 19.2677 40.6993 19.2677 41.5926C19.2677 42.7023 18.322 43.1373 16.8917 43.1373Z" fill="#F5EBDC"/>
<path d="M31.0452 47.8687V45.7443H37.3472V42.1712H31.0452V40.0468H37.5656V35.9922H25.8828V51.9233H37.7353V47.8687H31.0452Z" fill="#F5EBDC"/>
<path d="M47.6504 35.9922H40.0156V51.9233H47.4808C53.0556 51.9233 55.2375 48.7377 55.2375 43.9577C55.2375 38.2127 52.2074 35.9922 47.6504 35.9922ZM46.9719 47.3133H45.178V40.6265H47.1659C49.1772 40.6265 49.9533 41.978 49.9533 43.982C49.9533 46.3715 48.7658 47.3133 46.9719 47.3133Z" fill="#F5EBDC"/>
<path d="M57.2266 35.9922V51.9233H62.3889V35.9922H57.2266Z" fill="#F5EBDC"/>
<path d="M75.358 45.6472C77.7817 44.9714 78.7762 43.2577 78.7762 40.9158C78.7762 37.368 76.643 35.9922 73.4676 35.9922H65.1055V51.9233H70.2678V46.3472L73.9765 51.9233H79.5513L75.358 45.6472ZM71.5772 43.1373H70.2678V40.1196H72.3045C73.4676 40.1196 73.9044 40.6993 73.9044 41.544C73.9044 42.7023 72.9831 43.1373 71.5772 43.1373Z" fill="#F5EBDC"/>
</svg>
